<?xml version="1.0" encoding="utf-8"?>
<!-- Generator: Adobe Illustrator 19.0.0, SVG Export Plug-In . SVG Version: 6.00 Build 0)  -->
<svg version="1.1" xmlns="http://www.w3.org/2000/svg" xmlns:xlink="http://www.w3.org/1999/xlink" x="0px" y="0px"
	 viewBox="0 0 148 45.3" style="enable-background:new 0 0 148 45.3;" xml:space="preserve">
<style type="text/css">
	.st0{fill:#FFFFFF;}
</style>
<g id="Capa_1">
</g>
<g id="Capa_2">
	<g>
		<g>
			<path class="st0" d="M17.4,8.3c2.6,0,7.6,1.1,7.6,4.5V15h-3.4v-1.1c0-1.5-2.4-2.1-4.2-2.1c-3.6,0-6.4,2.6-6.4,6.8
				c0,3.9,2.9,7.1,6.5,7.1c3.8,0,6.1-2.7,6.1-2.7l1.9,2.7c0,0-2.9,3.4-8.1,3.4c-6.1,0-10.3-4.6-10.3-10.5
				C7.2,12.7,11.5,8.3,17.4,8.3z"/>
			<path class="st0" d="M28.6,12.3c0-0.4-0.2-0.6-0.6-0.6h-1.1V8.6h3.4c1.3,0,1.9,0.6,1.9,1.9v5.1c0,0.7-0.1,1.2-0.1,1.2h0.1
				c0.7-1.4,2.5-2.9,4.9-2.9c3.2,0,5,1.7,5,5.5v5.6c0,0.4,0.2,0.6,0.6,0.6h1.1v3h-3.4c-1.3,0-1.9-0.6-1.9-1.9v-6.6
				c0-1.8-0.5-2.9-2.3-2.9c-1.9,0-3.4,1.2-3.9,3c-0.2,0.6-0.2,1.2-0.2,1.9v6.6h-3.6V12.3z"/>
			<path class="st0" d="M52.7,13.9c4.1,0,6.4,3,6.4,6.8c0,0.4-0.1,1.3-0.1,1.3H49c0.3,2.5,2.1,3.9,4.3,3.9c2.3,0,4-1.6,4-1.6
				l1.5,2.5c0,0-2.2,2.2-5.8,2.2c-4.8,0-7.7-3.4-7.7-7.5C45.4,17.1,48.4,13.9,52.7,13.9z M55.4,19.6c-0.1-1.7-1.2-2.9-2.7-2.9
				c-1.8,0-3.1,1.1-3.5,2.9H55.4z"/>
			<path class="st0" d="M62.5,17.1h-1.8v-2.9h1.8v-0.4c0-4.7,3.9-5.3,5.9-5.3c0.7,0,1.2,0.1,1.2,0.1v3.1c0,0-0.3-0.1-0.7-0.1
				c-1,0-2.8,0.3-2.8,2.3v0.3h3.1v2.9h-3.1v11.6h-3.6V17.1z"/>
			<path class="st0" d="M72.7,11.8h-1.8V8.6h8.7c3.6,0,6.2,1.9,6.2,5.2c0,2.2-1.2,3.7-2.4,4.3v0.1c2.2,0.6,3.2,2.7,3.2,4.7
				c0,4-3.2,5.8-6.9,5.8h-5c-1.3,0-1.9-0.6-1.9-1.9V11.8z M79.6,16.8c1.6,0,2.4-1.1,2.4-2.6s-0.8-2.5-2.5-2.5h-3.1v5.1H79.6z
				 M77,25.6h2.9c1.8,0,2.8-1.2,2.8-2.9c0-1.7-1-2.9-2.8-2.9h-3.5v5.2C76.4,25.3,76.6,25.6,77,25.6z"/>
			<path class="st0" d="M96.5,13.9c4.4,0,7.9,3.1,7.9,7.5c0,4.4-3.5,7.5-7.9,7.5c-4.4,0-7.9-3.1-7.9-7.5
				C88.6,17.1,92.1,13.9,96.5,13.9z M96.5,26c2.3,0,4.3-1.8,4.3-4.5c0-2.7-1.9-4.5-4.3-4.5c-2.3,0-4.3,1.8-4.3,4.5
				C92.2,24.2,94.2,26,96.5,26z"/>
			<path class="st0" d="M114.1,13.9c4.4,0,7.9,3.1,7.9,7.5c0,4.4-3.5,7.5-7.9,7.5c-4.4,0-7.9-3.1-7.9-7.5
				C106.2,17.1,109.7,13.9,114.1,13.9z M114.1,26c2.3,0,4.3-1.8,4.3-4.5c0-2.7-1.9-4.5-4.3-4.5c-2.3,0-4.3,1.8-4.3,4.5
				C109.8,24.2,111.8,26,114.1,26z"/>
			<path class="st0" d="M124.9,12.3c0-0.4-0.2-0.6-0.6-0.6h-1.1V8.6h3.4c1.3,0,1.9,0.3,1.9,1.6v9.1h1.1c0.5,0,1-0.1,1.4-0.5l2.9-4.5
				h4l-3.6,5.4c-0.6,0.9-1.1,1.1-1.1,1.1v0.1c0,0,0.5,0.2,1,1.1l1.6,3.1c0.2,0.4,0.5,0.5,1.2,0.5h1v3h-2.7c-1.2,0-1.7-0.2-2.3-1.2
				l-2.4-4.5c-0.3-0.5-0.9-0.5-1.3-0.5h-0.8v6.3h-3.6V12.3z"/>
		</g>
		<circle class="st0" cx="98.2" cy="22.7" r="1.9"/>
		<circle class="st0" cx="115.7" cy="22.7" r="1.9"/>
		<g>
			<path class="st0" d="M105.9,40.8c-0.1,0-0.2,0-0.3,0c-7-0.2-11.8-5.8-12-6.1c-0.5-0.6-0.5-1.6,0.2-2.1c0.6-0.5,1.6-0.5,2.1,0.2
				l0,0c0,0,4.1,4.9,9.7,5c3.4,0.1,6.8-1.7,10-5.2c0.6-0.6,1.5-0.7,2.1-0.1c0.6,0.6,0.7,1.5,0.1,2.1
				C114.2,38.7,110.1,40.8,105.9,40.8z"/>
		</g>
	</g>
</g>
</svg>
